<svg xmlns="http://www.w3.org/2000/svg" viewBox="0 0 200 200">
  <defs>
    <linearGradient id="gradient" x1="0%" y1="0%" x2="100%" y2="100%">
      <stop offset="0%" stop-color="#FF5500" />
      <stop offset="100%" stop-color="#FF7700" />
    </linearGradient>
  </defs>
  <g fill="url(#gradient)">
    <path d="M100,30 C60,30 30,60 30,100 C30,140 60,170 100,170 C110,170 120,167.5 130,162.5 L130,145 C120,155 110,160 100,160 C65,160 40,135 40,100 C40,65 65,40 100,40 C135,40 160,65 160,100 L170,100 C170,60 140,30 100,30 Z" />
    <path d="M140,70 L140,140 L130,140 L130,115 C130,110 125,105 120,105 L100,105 L100,115 L120,115 L120,130 L100,130 L100,140 L120,140 C133,140 140,133 140,120 L140,90 C140,77 133,70 120,70 L100,70 L100,80 L120,80 L120,95 L100,95 L100,70 L140,70 Z" />
  </g>
</svg>